<?xml version="1.0" standalone="no"?>
<!DOCTYPE svg PUBLIC "-//W3C//DTD SVG 20010904//EN"
 "http://www.w3.org/TR/2001/REC-SVG-20010904/DTD/svg10.dtd">
<svg version="1.0" xmlns="http://www.w3.org/2000/svg"
 width="415.000000pt" height="415.000000pt" viewBox="0 0 415.000000 415.000000"
 preserveAspectRatio="xMidYMid meet">
<metadata>
Created by potrace 1.11, written by Peter Selinger 2001-2013
</metadata>
<g transform="translate(0.000000,415.000000) scale(0.100000,-0.100000)"
fill="#000000" stroke="none">
<path d="M50 2095 c0 -1449 0 -1456 20 -1445 37 20 300 109 300 102 0 -4 4 -2
8 4 4 6 88 39 187 73 99 35 189 67 200 72 69 30 720 257 726 254 4 -3 9 -1 11
3 3 10 526 199 575 208 26 5 213 -60 1020 -356 543 -200 994 -365 1001 -367 9
-4 12 286 12 1428 0 789 -3 1444 -6 1457 l-6 22 -2024 0 -2024 0 0 -1455z"/>
</g>
</svg>
